<?xml version="1.0" encoding="UTF-8" standalone="no"?>
<!DOCTYPE svg PUBLIC "-//W3C//DTD SVG 1.1//EN" "http://www.w3.org/Graphics/SVG/1.1/DTD/svg11.dtd">
<svg width="100%" height="100%" viewBox="0 0 1920 1080" version="1.1" xmlns="http://www.w3.org/2000/svg" xmlns:xlink="http://www.w3.org/1999/xlink" xml:space="preserve" xmlns:serif="http://www.serif.com/" style="fill-rule:evenodd;clip-rule:evenodd;stroke-linejoin:round;stroke-miterlimit:2;">
    <g id="Right-Stem" serif:id="Right Stem" transform="matrix(6.12323e-17,1,-1,6.12323e-17,1522.74,-383.808)">
        <g transform="matrix(0.970289,-0.241948,0.241948,0.970289,-64.019,246.703)">
            <path d="M949.57,326.456C949.57,304.946 932.107,287.483 910.597,287.483C889.088,287.483 871.625,304.946 871.625,326.456L871.625,512.601C871.625,534.11 889.088,551.573 910.597,551.573C932.107,551.573 949.57,534.11 949.57,512.601L949.57,326.456Z" style="fill:white;"/>
        </g>
        <g transform="matrix(0.967299,0.25364,-0.25364,0.967299,192.562,-203.045)">
            <path d="M949.57,326.456C949.57,304.946 932.107,287.483 910.597,287.483C889.088,287.483 871.625,304.946 871.625,326.456L871.625,512.601C871.625,534.11 889.088,551.573 910.597,551.573C932.107,551.573 949.57,534.11 949.57,512.601L949.57,326.456Z" style="fill:white;"/>
        </g>
        <g transform="matrix(1.02427,0,0,1.02427,-42.8565,-38.9425)">
            <circle cx="964" cy="369" r="83" style="fill:white;"/>
        </g>
    </g>
    <g id="Left-Stem" serif:id="Left Stem" transform="matrix(6.12323e-17,-1,1,6.12323e-17,397.264,1505.28)">
        <g transform="matrix(0.970289,-0.241948,0.241948,0.970289,-64.019,246.703)">
            <path d="M949.57,326.456C949.57,304.946 932.107,287.483 910.597,287.483C889.088,287.483 871.625,304.946 871.625,326.456L871.625,512.601C871.625,534.11 889.088,551.573 910.597,551.573C932.107,551.573 949.57,534.11 949.57,512.601L949.57,326.456Z" style="fill:white;"/>
        </g>
        <g transform="matrix(0.967299,0.25364,-0.25364,0.967299,192.562,-203.045)">
            <path d="M949.57,326.456C949.57,304.946 932.107,287.483 910.597,287.483C889.088,287.483 871.625,304.946 871.625,326.456L871.625,512.601C871.625,534.11 889.088,551.573 910.597,551.573C932.107,551.573 949.57,534.11 949.57,512.601L949.57,326.456Z" style="fill:white;"/>
        </g>
        <g transform="matrix(1.02427,0,0,1.02427,-42.8565,-38.9425)">
            <circle cx="964" cy="369" r="83" style="fill:white;"/>
        </g>
    </g>
    <g id="Bottom-Stem" serif:id="Bottom Stem" transform="matrix(-1,1.22465e-16,-1.22465e-16,-1,1904.54,1123.47)">
        <g transform="matrix(0.970289,-0.241948,0.241948,0.970289,-64.019,246.703)">
            <path d="M949.57,326.456C949.57,304.946 932.107,287.483 910.597,287.483C889.088,287.483 871.625,304.946 871.625,326.456L871.625,512.601C871.625,534.11 889.088,551.573 910.597,551.573C932.107,551.573 949.57,534.11 949.57,512.601L949.57,326.456Z" style="fill:white;"/>
        </g>
        <g transform="matrix(0.967299,0.25364,-0.25364,0.967299,192.562,-203.045)">
            <path d="M949.57,326.456C949.57,304.946 932.107,287.483 910.597,287.483C889.088,287.483 871.625,304.946 871.625,326.456L871.625,512.601C871.625,534.11 889.088,551.573 910.597,551.573C932.107,551.573 949.57,534.11 949.57,512.601L949.57,326.456Z" style="fill:white;"/>
        </g>
        <g transform="matrix(1.02427,0,0,1.02427,-42.8565,-38.9425)">
            <circle cx="964" cy="369" r="83" style="fill:white;"/>
        </g>
    </g>
    <g id="Top-Stem" serif:id="Top Stem" transform="matrix(1,0,0,1,15.4558,-2)">
        <g transform="matrix(0.970289,-0.241948,0.241948,0.970289,-64.019,246.703)">
            <path d="M949.57,326.456C949.57,304.946 932.107,287.483 910.597,287.483C889.088,287.483 871.625,304.946 871.625,326.456L871.625,512.601C871.625,534.11 889.088,551.573 910.597,551.573C932.107,551.573 949.57,534.11 949.57,512.601L949.57,326.456Z" style="fill:white;"/>
        </g>
        <g transform="matrix(0.967299,0.25364,-0.25364,0.967299,192.562,-203.045)">
            <path d="M949.57,326.456C949.57,304.946 932.107,287.483 910.597,287.483C889.088,287.483 871.625,304.946 871.625,326.456L871.625,512.601C871.625,534.11 889.088,551.573 910.597,551.573C932.107,551.573 949.57,534.11 949.57,512.601L949.57,326.456Z" style="fill:white;"/>
        </g>
        <g transform="matrix(1.02427,0,0,1.02427,-42.8565,-38.9425)">
            <circle cx="964" cy="369" r="83" style="fill:white;"/>
        </g>
    </g>
</svg>
